<?xml version="1.0" encoding="iso-8859-1"?>
<!-- Generator: Adobe Illustrator 19.0.0, SVG Export Plug-In . SVG Version: 6.00 Build 0)  -->
<svg xmlns="http://www.w3.org/2000/svg" xmlns:xlink="http://www.w3.org/1999/xlink" version="1.1" id="Capa_1" x="0px" y="0px" viewBox="0 0 374 374" style="enable-background:new 0 0 374 374;" xml:space="preserve" width="512px" height="512px">
<g>
	<g>
		<path d="M362.4,293.4h-16.8V92.6c0-19.2-16-35.2-35.2-35.2H63.6c-19.2,0-35.2,16-35.2,35.2v200.8H11.6C5.2,293.4,0,298.6,0,305    c0,6.4,5.2,11.6,11.6,11.6h16.8h317.2h16.8c6.4,0,11.6-5.2,11.6-11.6C374,298.6,368.8,293.4,362.4,293.4z M321.2,293.4h-268V101    c0-11.2,9.2-20.4,20.4-20.4h227.2c11.2,0,20.4,9.2,20.4,20.4V293.4z" fill="#2d253a"/>
	</g>
</g>
<g>
	<g>
		<path d="M290,270.6h-64c-6,0-11.2,5.2-11.6,11.6c0,6.4,5.2,11.6,11.6,11.6h64c6.4,0,11.6-5.2,11.6-11.6    C301.6,275.8,296.4,270.6,290,270.6z" fill="#2d253a"/>
	</g>
</g>
<g>
</g>
<g>
</g>
<g>
</g>
<g>
</g>
<g>
</g>
<g>
</g>
<g>
</g>
<g>
</g>
<g>
</g>
<g>
</g>
<g>
</g>
<g>
</g>
<g>
</g>
<g>
</g>
<g>
</g>
</svg>
