<?xml version="1.0" encoding="iso-8859-1"?>
<!-- Generator: Adobe Illustrator 19.0.0, SVG Export Plug-In . SVG Version: 6.00 Build 0)  -->
<svg xmlns="http://www.w3.org/2000/svg" xmlns:xlink="http://www.w3.org/1999/xlink" version="1.1" id="Capa_1" x="0px" y="0px" viewBox="0 0 478.08 478.08" style="enable-background:new 0 0 478.08 478.08;" xml:space="preserve" width="512px" height="512px">

<g>
	<g>
		<path d="M355.776,190.336c-8.704-8.704-19.456-15.36-31.232-19.456c-1.536-40.448-13.312-79.872-34.816-114.688    c-1.536-3.584-28.16-39.424-41.472-52.736c-5.12-4.608-13.312-4.608-18.432,0c-48.128,48.64-74.24,105.472-76.288,167.424    c-11.776,4.096-22.528,10.752-31.232,19.456c-32.256,29.696-34.816,79.872-5.12,112.64c2.048,2.56,5.12,4.096,8.704,4.096h0.512    c3.072,0,6.656-1.024,8.704-3.584l34.816-31.744c7.168,18.432,15.872,36.352,27.136,52.736    c10.24,15.36,36.352,16.896,44.032,16.896h0.512c10.752,0,29.184-2.048,37.888-14.336c11.776-16.896,21.504-35.84,28.672-55.296    l34.816,31.744c2.048,2.56,5.632,3.584,8.704,3.584h0.512c3.584,0,6.656-1.536,8.704-4.096    C390.592,270.208,388.032,220.032,355.776,190.336z M239.04,198.016c-24.064-0.512-43.52-19.968-43.52-44.032    s19.456-43.52,43.52-43.52s43.52,19.456,43.52,43.52S263.104,197.504,239.04,198.016z" fill="#FFFFFF"/>
	</g>
</g>
<g>
	<g>
		<rect x="226.24" y="359.808" width="25.6" height="59.904" fill="#FFFFFF"/>
	</g>
</g>
<g>
	<g>
		<rect x="268.224" y="350.08" width="25.6" height="54.784" fill="#FFFFFF"/>
	</g>
</g>
<g>
	<g>
		<rect x="184.256" y="350.08" width="25.6" height="50.176" fill="#FFFFFF"/>
	</g>
</g>
<g>
</g>
<g>
</g>
<g>
</g>
<g>
</g>
<g>
</g>
<g>
</g>
<g>
</g>
<g>
</g>
<g>
</g>
<g>
</g>
<g>
</g>
<g>
</g>
<g>
</g>
<g>
</g>
<g>
</g>
</svg>
