<svg height="466pt" viewBox="0 -27 466 466" width="466pt" xmlns="http://www.w3.org/2000/svg"><path d="m37.984375 411.894531h390.03125c21.023437-.152343 37.988281-17.242187 37.984375-38.269531v-165.9375c-.015625-10.050781-4.03125-19.683594-11.15625-26.773438-7.125-7.089843-16.777344-11.054687-26.828125-11.019531h-132.015625v-4.140625c.039062-10.03125-3.921875-19.667968-11.007812-26.773437-7.082032-7.105469-16.707032-11.09375-26.742188-11.085938h-19.25v-35.679687c0-27.582032-22.257812-50.320313-49.839844-50.320313h-27.832031c-18.753906.050781-33.996094-15.121093-34.027344-33.875.007813-4.417969-3.5625-8.0078122-7.980469-8.019531-4.421874-.0117188-8.011718 3.5625-8.019531 7.980469.039063 27.59375 22.433594 49.9375 50.027344 49.914062h27.832031c18.761719 0 33.839844 15.558594 33.839844 34.320313v35.679687h-15.25c-10.035156-.007812-19.660156 3.980469-26.742188 11.085938-7.085937 7.105469-11.046874 16.742187-11.007812 26.773437v4.140625h-132.015625c-10.050781-.035156-19.703125 3.929688-26.828125 11.019531-7.125 7.089844-11.140625 16.722657-11.15625 26.773438v165.9375c-.00390625 21.027344 16.960938 38.117188 37.984375 38.269531zm148.015625-246.140625c-.042969-5.789062 2.230469-11.359375 6.3125-15.464844 4.085938-4.105468 9.644531-6.410156 15.4375-6.394531h50.5c5.792969-.015625 11.351562 2.289063 15.4375 6.394531 4.082031 4.105469 6.355469 9.675782 6.3125 15.464844v4.140625h-94zm264 208.140625c0 12.152344-9.851562 22-22 22h-390c-12.148438 0-22-9.847656-22-22v-166c0-12.148437 9.851562-22 22-22h390c12.148438 0 22 9.851563 22 22zm0 0"/><path d="m257 222.894531c0-4.417969-3.582031-8-8-8h-33c-4.417969 0-8 3.582031-8 8v30c0 4.417969 3.582031 8 8 8h33c4.417969 0 8-3.582031 8-8zm-33 8h18v14h-18zm0 0"/><path d="m197 222.894531c0-4.417969-3.582031-8-8-8h-33c-4.417969 0-8 3.582031-8 8v30c0 4.417969 3.582031 8 8 8h33c4.417969 0 8-3.582031 8-8zm-33 8h18v14h-18zm0 0"/><path d="m137 222.894531c0-4.417969-3.582031-8-8-8h-33c-4.417969 0-8 3.582031-8 8v30c0 4.417969 3.582031 8 8 8h33c4.417969 0 8-3.582031 8-8zm-33 8h18v14h-18zm0 0"/><path d="m77 222.894531c0-4.417969-3.582031-8-8-8h-33c-4.417969 0-8 3.582031-8 8v30c0 4.417969 3.582031 8 8 8h33c4.417969 0 8-3.582031 8-8zm-33 8h18v14h-18zm0 0"/><path d="m377 222.894531c0-4.417969-3.582031-8-8-8h-33c-4.417969 0-8 3.582031-8 8v30c0 4.417969 3.582031 8 8 8h33c4.417969 0 8-3.582031 8-8zm-33 8h18v14h-18zm0 0"/><path d="m317 222.894531c0-4.417969-3.582031-8-8-8h-33c-4.417969 0-8 3.582031-8 8v30c0 4.417969 3.582031 8 8 8h33c4.417969 0 8-3.582031 8-8zm-33 8h18v14h-18zm0 0"/><path d="m437 222.894531c0-4.417969-3.582031-8-8-8h-33c-4.417969 0-8 3.582031-8 8v30c0 4.417969 3.582031 8 8 8h33c4.417969 0 8-3.582031 8-8zm-33 8h18v14h-18zm0 0"/><path d="m257 277.894531c0-4.417969-3.582031-8-8-8h-33c-4.417969 0-8 3.582031-8 8v30c0 4.417969 3.582031 8 8 8h33c4.417969 0 8-3.582031 8-8zm-33 8h18v14h-18zm0 0"/><path d="m197 277.894531c0-4.417969-3.582031-8-8-8h-33c-4.417969 0-8 3.582031-8 8v30c0 4.417969 3.582031 8 8 8h33c4.417969 0 8-3.582031 8-8zm-33 8h18v14h-18zm0 0"/><path d="m137 277.894531c0-4.417969-3.582031-8-8-8h-33c-4.417969 0-8 3.582031-8 8v30c0 4.417969 3.582031 8 8 8h33c4.417969 0 8-3.582031 8-8zm-33 8h18v14h-18zm0 0"/><path d="m77 277.894531c0-4.417969-3.582031-8-8-8h-33c-4.417969 0-8 3.582031-8 8v30c0 4.417969 3.582031 8 8 8h33c4.417969 0 8-3.582031 8-8zm-33 8h18v14h-18zm0 0"/><path d="m377 277.894531c0-4.417969-3.582031-8-8-8h-33c-4.417969 0-8 3.582031-8 8v30c0 4.417969 3.582031 8 8 8h33c4.417969 0 8-3.582031 8-8zm-33 8h18v14h-18zm0 0"/><path d="m317 277.894531c0-4.417969-3.582031-8-8-8h-33c-4.417969 0-8 3.582031-8 8v30c0 4.417969 3.582031 8 8 8h33c4.417969 0 8-3.582031 8-8zm-33 8h18v14h-18zm0 0"/><path d="m437 277.894531c0-4.417969-3.582031-8-8-8h-33c-4.417969 0-8 3.582031-8 8v30c0 4.417969 3.582031 8 8 8h33c4.417969 0 8-3.582031 8-8zm-33 8h18v14h-18zm0 0"/><path d="m137 332.894531c0-4.417969-3.582031-8-8-8h-33c-4.417969 0-8 3.582031-8 8v30c0 4.417969 3.582031 8 8 8h33c4.417969 0 8-3.582031 8-8zm-33 8h18v14h-18zm0 0"/><path d="m77 332.894531c0-4.417969-3.582031-8-8-8h-33c-4.417969 0-8 3.582031-8 8v30c0 4.417969 3.582031 8 8 8h33c4.417969 0 8-3.582031 8-8zm-33 8h18v14h-18zm0 0"/><path d="m377 332.894531c0-4.417969-3.582031-8-8-8h-33c-4.417969 0-8 3.582031-8 8v30c0 4.417969 3.582031 8 8 8h33c4.417969 0 8-3.582031 8-8zm-33 8h18v14h-18zm0 0"/><path d="m317 332.894531c0-4.417969-3.582031-8-8-8h-153c-4.417969 0-8 3.582031-8 8v30c0 4.417969 3.582031 8 8 8h153c4.417969 0 8-3.582031 8-8zm-153 8h138v14h-138zm0 0"/><path d="m437 332.894531c0-4.417969-3.582031-8-8-8h-33c-4.417969 0-8 3.582031-8 8v30c0 4.417969 3.582031 8 8 8h33c4.417969 0 8-3.582031 8-8zm-33 8h18v14h-18zm0 0"/></svg>