<svg height="448pt" viewBox="0 -148 448 448" width="448pt" xmlns="http://www.w3.org/2000/svg"><path d="m408 128h16v24h-16zm0 0"/><path d="m312 128h16v24h-16zm0 0"/><path d="m344 128h16v24h-16zm0 0"/><path d="m376 128h16v24h-16zm0 0"/><path d="m440 128h8v24h-8zm0 0"/><path d="m48 88h128v-64h-128zm104-56h16v16h-16zm-40 0h32v16h-32zm0 0"/><path d="m272 88h128v-64h-128zm104-56h16v16h-16zm-40 0h32v16h-32zm0 0"/><path d="m448 8c0-4.417969-3.582031-8-8-8h-432c-4.417969 0-8 3.582031-8 8v104h448zm-256 88c0 4.417969-3.582031 8-8 8h-144c-4.417969 0-8-3.582031-8-8v-80c0-4.417969 3.582031-8 8-8h144c4.417969 0 8 3.582031 8 8zm224 0c0 4.417969-3.582031 8-8 8h-144c-4.417969 0-8-3.582031-8-8v-80c0-4.417969 3.582031-8 8-8h144c4.417969 0 8 3.582031 8 8zm0 0"/><path d="m184 152h9.015625c3.664063-14.117188 16.398437-23.984375 30.984375-24h-40zm0 0"/><path d="m88 128h16v24h-16zm0 0"/><path d="m56 128h16v24h-16zm0 0"/><path d="m24 128h16v24h-16zm0 0"/><path d="m0 128h8v24h-8zm0 0"/><path d="m120 128h16v24h-16zm0 0"/><path d="m280 128h16v24h-16zm0 0"/><path d="m254.984375 152h9.015625v-24h-40c14.585938.015625 27.320312 9.882812 30.984375 24zm0 0"/><path d="m152 128h16v24h-16zm0 0"/></svg>