<svg xmlns="http://www.w3.org/2000/svg" height="600pt" version="1.1" viewBox="0 0 600 600" width="600pt">
<g id="surface1">
<path d="M 570 0 L 30 0 C 13.433594 0 0 13.433594 0 30 L 0 390 C 0 406.566406 13.433594 420 30 420 L 100 420 L 100 480 C 100 496.566406 113.433594 510 130 510 L 260 510 C 265.523438 510 270 514.476562 270 520 L 270 570 C 270 586.566406 283.433594 600 300 600 C 316.566406 600 330 586.566406 330 570 L 330 480 C 330 463.433594 316.566406 450 300 450 L 170 450 C 164.476562 450 160 445.523438 160 440 L 160 420 L 570 420 C 586.566406 420 600 406.566406 600 390 L 600 30 C 600 13.433594 586.566406 0 570 0 Z M 130 310 C 113.433594 310 100 323.433594 100 340 L 100 346.441406 C 85.816406 330.355469 86.835938 305.957031 102.3125 291.113281 C 117.789062 276.273438 142.210938 276.273438 157.6875 291.113281 C 173.164062 305.957031 174.183594 330.355469 160 346.441406 L 160 340 C 160 323.433594 146.566406 310 130 310 Z M 170 470 L 300 470 C 305.523438 470 310 474.476562 310 480 L 310 570 C 310 575.523438 305.523438 580 300 580 C 294.476562 580 290 575.523438 290 570 L 290 520 C 290 503.433594 276.566406 490 260 490 L 130 490 C 124.476562 490 120 485.523438 120 480 L 120 340 C 120 334.476562 124.476562 330 130 330 C 135.523438 330 140 334.476562 140 340 L 140 440 C 140 456.566406 153.433594 470 170 470 Z M 580 390 C 580 395.523438 575.523438 400 570 400 L 160 400 L 160 371.871094 C 183.519531 358.289062 194.984375 330.609375 187.953125 304.378906 C 180.929688 278.148438 157.15625 259.90625 130 259.90625 C 102.84375 259.90625 79.070312 278.148438 72.046875 304.378906 C 65.015625 330.609375 76.480469 358.289062 100 371.871094 L 100 400 L 30 400 C 24.476562 400 20 395.523438 20 390 L 20 30 C 20 24.476562 24.476562 20 30 20 L 570 20 C 575.523438 20 580 24.476562 580 30 Z M 580 390 " style=" stroke:none;fill-rule:nonzero;fill:rgb(0%,0%,0%);fill-opacity:1;" />
<path d="M 40 40 L 60 40 L 60 200 L 40 200 Z M 40 40 " style=" stroke:none;fill-rule:nonzero;fill:rgb(0%,0%,0%);fill-opacity:1;" />
<path d="M 80 40 L 100 40 L 100 200 L 80 200 Z M 80 40 " style=" stroke:none;fill-rule:nonzero;fill:rgb(0%,0%,0%);fill-opacity:1;" />
<path d="M 120 40 L 140 40 L 140 200 L 120 200 Z M 120 40 " style=" stroke:none;fill-rule:nonzero;fill:rgb(0%,0%,0%);fill-opacity:1;" />
<path d="M 160 40 L 180 40 L 180 200 L 160 200 Z M 160 40 " style=" stroke:none;fill-rule:nonzero;fill:rgb(0%,0%,0%);fill-opacity:1;" />
<path d="M 200 40 L 220 40 L 220 200 L 200 200 Z M 200 40 " style=" stroke:none;fill-rule:nonzero;fill:rgb(0%,0%,0%);fill-opacity:1;" />
<path d="M 240 40 L 260 40 L 260 200 L 240 200 Z M 240 40 " style=" stroke:none;fill-rule:nonzero;fill:rgb(0%,0%,0%);fill-opacity:1;" />
<path d="M 550 40 L 310 40 C 304.476562 40 300 44.476562 300 50 L 300 190 C 300 195.523438 304.476562 200 310 200 L 550 200 C 555.523438 200 560 195.523438 560 190 L 560 50 C 560 44.476562 555.523438 40 550 40 Z M 540 180 L 320 180 L 320 60 L 540 60 Z M 540 180 " style=" stroke:none;fill-rule:nonzero;fill:rgb(0%,0%,0%);fill-opacity:1;" />
<path d="M 500 70 L 520 70 L 520 90 L 500 90 Z M 500 70 " style=" stroke:none;fill-rule:nonzero;fill:rgb(0%,0%,0%);fill-opacity:1;" />
<path d="M 450 70 L 490 70 L 490 90 L 450 90 Z M 450 70 " style=" stroke:none;fill-rule:nonzero;fill:rgb(0%,0%,0%);fill-opacity:1;" />
<path d="M 400 100 L 520 100 L 520 120 L 400 120 Z M 400 100 " style=" stroke:none;fill-rule:nonzero;fill:rgb(0%,0%,0%);fill-opacity:1;" />
<path d="M 400 130 L 520 130 L 520 150 L 400 150 Z M 400 130 " style=" stroke:none;fill-rule:nonzero;fill:rgb(0%,0%,0%);fill-opacity:1;" />
<path d="M 550 240 L 410 240 C 404.476562 240 400 244.476562 400 250 L 400 370 C 400 375.523438 404.476562 380 410 380 L 550 380 C 555.523438 380 560 375.523438 560 370 L 560 250 C 560 244.476562 555.523438 240 550 240 Z M 540 360 L 420 360 L 420 260 L 540 260 Z M 540 360 " style=" stroke:none;fill-rule:nonzero;fill:rgb(0%,0%,0%);fill-opacity:1;" />
<path d="M 440 280 L 460 280 L 460 320 L 440 320 Z M 440 280 " style=" stroke:none;fill-rule:nonzero;fill:rgb(0%,0%,0%);fill-opacity:1;" />
<path d="M 500 280 L 520 280 L 520 320 L 500 320 Z M 500 280 " style=" stroke:none;fill-rule:nonzero;fill:rgb(0%,0%,0%);fill-opacity:1;" />
<path d="M 460 320 L 500 320 L 500 340 L 460 340 Z M 460 320 " style=" stroke:none;fill-rule:nonzero;fill:rgb(0%,0%,0%);fill-opacity:1;" />
</g>
</svg>