<?xml version="1.0" encoding="iso-8859-1"?>
<!-- Generator: Adobe Illustrator 19.0.0, SVG Export Plug-In . SVG Version: 6.00 Build 0)  -->
<svg xmlns="http://www.w3.org/2000/svg" xmlns:xlink="http://www.w3.org/1999/xlink" version="1.1" id="Capa_1" x="0px" y="0px" viewBox="0 0 141.763 141.763" style="enable-background:new 0 0 141.763 141.763;" xml:space="preserve" width="512px" height="512px">
<g>
	<path d="M70.897,141.763C31.802,141.763,0,109.968,0,70.882S31.802,0,70.897,0   c39.076,0,70.867,31.795,70.867,70.882S109.972,141.763,70.897,141.763z M70.897,7.603c-34.899,0-63.293,28.387-63.293,63.278   s28.394,63.278,63.293,63.278c34.884,0,63.263-28.387,63.263-63.278S105.78,7.603,70.897,7.603z" fill="#222222"/>
	<path d="M107.525,113.525c-8.268-10.15-21.893-16.209-36.451-16.209c-15.036,0-28.792,6.044-36.803,16.172   l-5.962-4.722c9.441-11.932,25.428-19.053,42.766-19.053c16.818,0,32.649,7.106,42.346,19.016L107.525,113.525z" fill="#222222"/>
	<g>
		<g>
			<path d="M58.129,59.321c-2.298-4.054-6.557-6.571-11.119-6.571c-4.455,0-8.528,2.324-10.9,6.208     l-6.49-3.95c3.761-6.178,10.262-9.861,17.39-9.861c7.292,0,14.089,3.995,17.735,10.418L58.129,59.321z" fill="#222222"/>
		</g>
		<g>
			<path d="M105.587,59.313c-2.283-4.047-6.534-6.564-11.093-6.564c-4.466,0-8.539,2.324-10.904,6.208     l-6.497-3.95c3.753-6.178,10.258-9.861,17.401-9.861c7.299,0,14.086,3.995,17.717,10.425L105.587,59.313z" fill="#222222"/>
		</g>
	</g>
</g>
<g>
</g>
<g>
</g>
<g>
</g>
<g>
</g>
<g>
</g>
<g>
</g>
<g>
</g>
<g>
</g>
<g>
</g>
<g>
</g>
<g>
</g>
<g>
</g>
<g>
</g>
<g>
</g>
<g>
</g>
</svg>
